<!DOCTYPE svg PUBLIC "-//W3C//DTD SVG 1.1//EN" "http://www.w3.org/Graphics/SVG/1.1/DTD/svg11.dtd">
<!-- Uploaded to: SVG Repo, www.svgrepo.com, Transformed by: SVG Repo Mixer Tools -->
<svg fill="#999999" width="100px" height="100px" viewBox="-6.4 -6.4 44.80 44.80" version="1.1" xmlns="http://www.w3.org/2000/svg" stroke="#999999">
<g id="SVGRepo_bgCarrier" stroke-width="0"/>
<g id="SVGRepo_tracerCarrier" stroke-linecap="round" stroke-linejoin="round"/>
<g id="SVGRepo_iconCarrier"> <title>alt-clipboard</title> <path d="M2.016 30.016v-26.016q0-0.832 0.576-1.408t1.408-0.576h4v4h-1.984v21.984h20v-21.984h-2.016v-4h4q0.832 0 1.408 0.576t0.608 1.408v26.016q0 0.832-0.608 1.408t-1.408 0.576h-24q-0.832 0-1.408-0.576t-0.576-1.408zM8 26.016v-18.016h2.016q0 0.832 0.576 1.44t1.408 0.576h8q0.832 0 1.408-0.576t0.608-1.44h1.984v18.016h-16zM10.016 22.016h9.984v-2.016h-9.984v2.016zM10.016 18.016h8v-2.016h-8v2.016zM10.016 14.016h12v-2.016h-12v2.016zM10.016 6.016v-4h4v-2.016h4v2.016h4v4q0 0.832-0.608 1.408t-1.408 0.576h-8q-0.832 0-1.408-0.576t-0.576-1.408zM14.016 6.016h4v-2.016h-4v2.016z"/> </g>
</svg>